<svg xmlns="http://www.w3.org/2000/svg" version="1.1" xmlns:xlink="http://www.w3.org/1999/xlink" xmlns:svgjs="http://svgjs.dev/svgjs" width="100%" height="100%" viewBox="0 0 1000 600"><rect width="1000" height="600" x="0" y="0" fill="transparent"/><g><circle r="166.66666666666666" cx="328.7460581461588" cy="350.9683108694951" fill="aqua" transform="matrix(0.7712269097939417,0,0,0.7712269097939417,0,29.323805832542973)"/><path d="M229.74713376678844 422.18747745932484L183.38495887102945 422.18747745932484Q196.01456232730618 419.5596618781887 201.10930682134563 409.0752139983496L201.10930682134563 409.0752139983496L201.29700793428395 408.2439662124801L221.08606812692136 275.96831048039263L271.8994408437885 390.41236048334196L320.5408435395126 275.96831048039263L340.24946039803353 408.2439662124801L340.43716151097186 409.0752139983496Q345.53190600501136 419.5596618781887 358.16150946128806 422.18747745932484L358.16150946128806 422.18747745932484L303.6745578197714 422.18747745932484Q321.66705021714233 415.4838662829572 321.66705021714233 409.4506162242263L321.66705021714233 409.4506162242263Q321.66705021714233 409.2629151112879 321.66705021714233 408.9947706642333L321.66705021714233 408.9947706642333L321.5866068830259 408.2439662124801L309.22514787380385 326.88894097608164L266.3220363450506 425.9683141627963L222.96307925630435 326.03087874550664L211.83508470353394 408.2439662124801L211.75464136941753 409.3701728901098Q211.94234248235585 415.0280207229642 229.74713376678844 422.18747745932484L229.74713376678844 422.18747745932484ZM372.66812404694775 380.75916038937254Q368.5118851175998 367.51282470486996 368.5118851175998 352.04089010981323Q368.5118851175998 336.5957699594621 372.66812404694775 322.2500420420352L372.66812404694775 322.2500420420352Q376.90480631041214 307.5557263434372 383.98381971265644 298.30474292004976L383.98381971265644 298.30474292004976Q391.3309775619554 288.59791393666933 400.95736321121944 283.0473238826369L400.95736321121944 283.0473238826369Q410.6641921945999 277.3894760497826 420.5587222909186 277.3894760497826L420.5587222909186 277.3894760497826Q421.04138229561715 277.3894760497826 421.49722785561005 277.3894760497826L421.49722785561005 277.3894760497826Q432.43752129544225 277.3894760497826 441.76894805294603 282.29651943088373L441.76894805294603 282.29651943088373Q448.1776003375535 285.67513946377306 451.9584370410249 289.16101727548426L451.9584370410249 289.16101727548426L452.7092414927781 289.2682750543062Q462.12111158439836 288.517470602553 465.1511438361165 277.2822182709607L465.1511438361165 277.2822182709607L465.1511438361165 331.7959843571828Q460.2441004550153 312.54321305865477 453.6477470574696 301.6297340635282L453.6477470574696 301.6297340635282Q450.4300136928131 296.6154329036051 445.44252697759555 292.94185397895563L445.44252697759555 292.94185397895563Q437.71996690241997 287.2840061461013 427.1550756884644 287.2840061461013L427.1550756884644 287.2840061461013Q416.02708113569406 287.2840061461013 405.67670547938235 295.48922622597536L405.67670547938235 295.48922622597536Q397.47148539950825 303.5067451929111 392.83258646546176 319.9976286867757L392.83258646546176 319.9976286867757Q388.51546086788096 335.5500066159487 388.51546086788096 350.4588378721905L388.51546086788096 350.4588378721905Q388.51546086788096 351.0219412110054 388.51546086788096 351.6654878839367L388.51546086788096 351.6654878839367Q388.51546086788096 366.3866180272401 391.51867867489375 378.45311814470205L391.51867867489375 378.45311814470205Q396.98882539480974 398.7248383420379 403.20977656647904 405.4016350737001L403.20977656647904 405.4016350737001Q411.7903988722297 414.65261849708753 422.24803230736325 414.65261849708753L422.24803230736325 414.65261849708753Q431.12361350487413 414.65261849708753 439.8919369235631 406.63509953015176L439.8919369235631 406.63509953015176Q449.41106479400526 396.07020831619633 450.91267369751154 387.30188489750736L450.91267369751154 387.30188489750736Q451.39533370221 384.5668115375493 451.39533370221 382.2071404034679L451.39533370221 382.2071404034679Q451.39533370221 377.3269114670722 449.5987659069435 374.1091781024157L449.5987659069435 374.1091781024157L449.11610590224507 373.43881698477895Q442.0639069447062 363.54428688846025 425.0903634461432 361.6672757590773L425.0903634461432 361.6672757590773L474.1071683677437 361.6672757590773Q473.16866280305237 371.7495069683343 470.3263316642724 380.7055314999615L470.3263316642724 380.7055314999615Q466.1969071796299 394.0859394079915 459.01063599856377 403.60506727843364L459.01063599856377 403.60506727843364Q451.9584370410249 413.04375181475933 442.0639069447062 418.78204298173006L442.0639069447062 418.78204298173006Q432.24982018250387 424.54714859340635 421.49722785561005 424.54714859340635Q410.7446355287163 424.54714859340635 400.95736321121944 418.83567187114096Q391.14327644901715 413.1241951488757 383.98381971265644 403.60506727843364L383.98381971265644 403.60506727843364Q376.82436297629573 394.005496073875 372.66812404694775 380.75916038937254Z " fill="black" transform="matrix(0.7712269097939417,0,0,0.7712269097939417,0,29.323805832542973)"/><path d="M625.1082482687416 422.18747745932484L578.7460733729826 422.18747745932484Q591.3756768292593 419.5596618781887 596.4704213232988 409.0752139983496L596.4704213232988 409.0752139983496L596.6581224362371 408.2439662124801L616.4471826288745 275.96831048039263L667.2605553457416 390.41236048334196L715.9019580414656 275.96831048039263L735.6105748999867 408.2439662124801L735.798276012925 409.0752139983496Q740.8930205069644 419.5596618781887 753.5226239632411 422.18747745932484L753.5226239632411 422.18747745932484L699.0356723217245 422.18747745932484Q717.0281647190955 415.4838662829572 717.0281647190955 409.4506162242263L717.0281647190955 409.4506162242263Q717.0281647190955 409.2629151112879 717.0281647190955 408.9947706642333L717.0281647190955 408.9947706642333L716.947721384979 408.2439662124801L704.586262375757 326.88894097608164L661.6831508470037 425.9683141627963L618.3241937582575 326.03087874550664L607.1961992054871 408.2439662124801L607.1157558713707 409.3701728901098Q607.3034569843089 415.0280207229642 625.1082482687416 422.18747745932484L625.1082482687416 422.18747745932484ZM858.715690542803 422.18747745932484L757.2766462220071 422.18747745932484Q768.9677441135923 419.93506410406525 775.0009941723233 408.9947706642333L775.0009941723233 408.9947706642333L775.1886952852616 408.2439662124801L775.1886952852616 293.6926584307088L775.0009941723233 292.94185397895563Q768.9677441135923 282.00156053912355 757.2766462220071 279.749147183864L757.2766462220071 279.749147183864L846.4614893124029 279.749147183864L863.9981361497809 310.10309859045697Q844.5844781830199 290.1263372848812 837.8808670066524 289.45597616724444L837.8808670066524 289.45597616724444L836.5669592160842 289.3487183884225L793.8515488002693 289.3487183884225L793.8515488002693 361.6672757590773L823.3742524209925 361.6672757590773L824.6881602115607 361.5600179802554Q831.3917713879283 360.9164713073241 850.8054293546892 340.9397100017483L850.8054293546892 340.9397100017483L823.5619535339308 388.1599471280825Q824.3932013198005 385.0494715422478 824.3932013198005 382.3948415164062L824.3932013198005 382.3948415164062Q824.3932013198005 375.4230858929838 818.7353534869461 371.561805855396L818.7353534869461 371.561805855396L818.0918068140148 371.2936614083413L793.8515488002693 371.2936614083413L793.8515488002693 412.5610918100609L848.8211604464843 412.5610918100609L850.1350682370525 412.4806484759444Q856.8386794134201 411.8102873583077 876.252337380181 391.8335260527319L876.252337380181 391.8335260527319L858.715690542803 422.18747745932484ZM892.662777539929 380.75916038937254Q888.5065386105812 367.51282470486996 888.5065386105812 352.04089010981323Q888.5065386105812 336.5957699594621 892.662777539929 322.2500420420352L892.662777539929 322.2500420420352Q896.8994598033935 307.5557263434372 903.9784732056378 298.30474292004976L903.9784732056378 298.30474292004976Q911.3256310549367 288.59791393666933 920.9252022594953 283.0473238826369L920.9252022594953 283.0473238826369Q930.6588456875812 277.3894760497826 940.5533757838999 277.3894760497826L940.5533757838999 277.3894760497826Q941.0092213438929 277.3894760497826 941.4918813485915 277.3894760497826L941.4918813485915 277.3894760497826Q952.4321747884235 277.3894760497826 961.7636015459273 282.29651943088373L961.7636015459273 282.29651943088373Q968.1722538305348 285.67513946377306 971.9262760893007 289.16101727548426L971.9262760893007 289.16101727548426L972.677080541054 289.2682750543062Q982.1157650773796 288.517470602553 985.145797329098 277.2822182709607L985.145797329098 277.2822182709607L985.145797329098 331.7959843571828Q980.2387539479967 312.54321305865477 973.6424005504508 301.6297340635282L973.6424005504508 301.6297340635282Q970.4246671857943 296.6154329036051 965.4371804705768 292.94185397895563L965.4371804705768 292.94185397895563Q957.7146203954012 287.2840061461013 947.1497291814458 287.2840061461013L947.1497291814458 287.2840061461013Q936.0217346286754 287.2840061461013 925.6445445276581 295.48922622597536L925.6445445276581 295.48922622597536Q917.4393244477841 303.5067451929111 912.8272399584431 319.9976286867757L912.8272399584431 319.9976286867757Q908.4832999161569 335.5500066159487 908.4832999161569 350.4588378721905L908.4832999161569 350.4588378721905Q908.4832999161569 351.0219412110054 908.4832999161569 351.6654878839367L908.4832999161569 351.6654878839367Q908.4832999161569 366.3866180272401 911.5133321678751 378.45311814470205L911.5133321678751 378.45311814470205Q916.9834788877911 398.7248383420379 923.2044300594603 405.4016350737001L923.2044300594603 405.4016350737001Q931.785052365211 414.65261849708753 942.2426858003446 414.65261849708753L942.2426858003446 414.65261849708753Q951.09145255315 414.65261849708753 959.8597759718389 406.63509953015176L959.8597759718389 406.63509953015176Q969.378903842281 396.07020831619633 970.9073271904929 387.30188489750736L970.9073271904929 387.30188489750736Q971.3631727504859 384.5668115375493 971.3631727504859 382.2071404034679L971.3631727504859 382.2071404034679Q971.3631727504859 377.3269114670722 969.5666049552193 374.1091781024157L969.5666049552193 374.1091781024157L969.1107593952263 373.43881698477895Q962.031745992982 363.54428688846025 945.058202494419 361.6672757590773L945.058202494419 361.6672757590773L994.1018218607251 361.6672757590773Q993.1365018513281 371.7495069683343 990.3209851572537 380.7055314999615L990.3209851572537 380.7055314999615Q986.1647462279058 394.0859394079915 979.005289491545 403.60506727843364L979.005289491545 403.60506727843364Q971.9262760893007 413.04375181475933 962.031745992982 418.78204298173006L962.031745992982 418.78204298173006Q952.2444736754852 424.54714859340635 941.4918813485915 424.54714859340635Q930.7392890216977 424.54714859340635 920.9252022594953 418.83567187114096Q911.1379299419984 413.1241951488757 903.9784732056378 403.60506727843364L903.9784732056378 403.60506727843364Q896.7922020245716 394.005496073875 892.662777539929 380.75916038937254ZM1043.3867712293804 422.18747745932484L996.9173385547995 422.18747745932484Q1008.501178667563 419.93506410406525 1014.5344287262939 408.9947706642333L1014.5344287262939 408.9947706642333L1014.829387618054 408.2439662124801L1065.2673581090446 275.96831048039263L1116.6438341647267 408.2439662124801L1116.724277498843 408.5121106595348L1117.019236390603 409.3701728901098Q1123.052486449334 419.93506410406525 1134.5558832279812 422.18747745932484L1134.5558832279812 422.18747745932484L1080.0689315864645 422.18747745932484Q1098.0614239838353 416.9050318523471 1098.0614239838353 410.49637956773955L1098.0614239838353 410.49637956773955Q1098.0614239838353 409.8260184501028 1097.873722870897 409.0752139983496L1097.873722870897 409.0752139983496L1097.6055784238424 408.2439662124801L1083.179407172299 371.2936614083413L1039.713192304731 371.2936614083413L1025.8501243920025 408.2439662124801L1025.5819799449478 409.18247177717154Q1025.3942788320096 409.74557511598647 1025.3942788320096 410.4159362336232L1025.3942788320096 410.4159362336232Q1025.3942788320096 416.1542274005939 1043.3867712293804 422.18747745932484L1043.3867712293804 422.18747745932484ZM1061.2183769585185 311.8996663857235L1043.306327895264 361.6672757590773L1079.5058282476496 361.6672757590773L1061.2183769585185 311.8996663857235Z " fill="orange" transform="matrix(0.7712269097939417,0,0,0.7712269097939417,0,29.323805832542973)"/></g></svg>